<svg id="Calque_1" data-name="Calque 1" xmlns="http://www.w3.org/2000/svg" width="25.7819mm" height="30.6484mm" viewBox="0 0 73.0825 86.8774"><path d="M15.0294,66.5784s8.1539-13.8836,14.5447-9.4761,7.0566,9.6965,11.7924,8.5946,6.9395-6.51,13.11-2.4241c6.0731,4.021,10.409,4.6279,10.409,4.6279" transform="translate(-0.4174 -1.4769)" fill="none" stroke="#165187" stroke-miterlimit="10" stroke-width="2"/><path d="M15.45,27.44C9.142,31.4021-.1875,39.1412,1.0246,42.3736c1.5348,4.0929,19.8741.7019,25.0442-.3109" transform="translate(-0.4174 -1.4769)" fill="none" stroke="#165187" stroke-miterlimit="10"/><path d="M55.89,28.6676c4.5-2.845,18.4338-11.6355,17.0086-15.1758-1.0278-2.5531-9.4028-1.5936-14.9931-.9524" transform="translate(-0.4174 -1.4769)" fill="none" stroke="#165187" stroke-miterlimit="10"/><path d="M35.1471,61.5494s11.3947-9.2794,16.5-10.1355c6.7287-1.1283,13.2383,8.3471,13.2383,8.3471" transform="translate(-0.4174 -1.4769)" fill="none" stroke="#165187" stroke-miterlimit="10" stroke-width="2"/><path d="M38.7171,4.4769h2.48A23.6878,23.6878,0,0,1,64.8854,28.1646v33.502A23.6877,23.6877,0,0,1,41.1976,85.3543h-2.48A23.6877,23.6877,0,0,1,15.0294,61.6666V28.1646A23.6878,23.6878,0,0,1,38.7171,4.4769Z" transform="translate(-0.4174 -1.4769)" fill="none" stroke="#165187" stroke-miterlimit="10" stroke-width="6"/><path d="M52.2683,29.49a4.5988,4.5988,0,0,0-3.3991.2448c-1.9791.7024-3.9978,1.5728-5.9714,2.48L32.56,25.306l-1.5435,1.341,6.7059,7.7171L30.6059,38.02c-.9489-.8148-2.4983-1.9359-3.05-.6a1.53,1.53,0,0,0-.0673.9616l1.9837,4.7772a1.5327,1.5327,0,0,0,.7288.631c1.3357.5517,1.6347-1.337,1.7272-2.5845l7.6128-2.4616.7344,10.1972,2.0395-.1469,2.4014-12.2c2.0356-.7579,4.077-1.5737,5.9714-2.48A4.5987,4.5987,0,0,0,53.26,31.8786a1.713,1.713,0,0,0-.992-2.3884Z" transform="translate(-0.4174 -1.4769)" fill="#165187"/></svg>