<svg xmlns="http://www.w3.org/2000/svg" width="148.0859mm" height="25.0126mm" viewBox="0 0 419.771 70.9019"><g id="Calque_1" data-name="Calque 1"><path d="M2.7365,58.4481l5.5371-3.34q5.844,10.7681,13.4912,10.7666a13.02,13.02,0,0,0,6.1963-1.5381A10.8106,10.8106,0,0,0,32.3557,60.25,10.6029,10.6029,0,0,0,33.85,54.8007a11.1537,11.1537,0,0,0-2.1973-6.416q-3.076-4.3506-11.206-8.877-8.1738-6.1524-10.1074-8.9209a16.139,16.139,0,0,1-3.4717-9.9756,15.089,15.089,0,0,1,2.0215-7.7344,14.6427,14.6427,0,0,1,5.7348-5.5151,16.4555,16.4555,0,0,1,8.064-2.0435A16.8677,16.8677,0,0,1,31.257,7.6254q3.9984,2.3072,8.4815,8.4155L34.4211,20.04q-3.6482-4.8339-6.24-6.394a10.8,10.8,0,0,0-5.669-1.56,8.9042,8.9042,0,0,0-6.416,2.395,7.8051,7.8051,0,0,0-2.5049,5.8667,10.257,10.257,0,0,0,.8789,4.1309,14.0651,14.0651,0,0,0,3.252,4.3066q1.2744,1.2752,8.4375,6.5479,8.4375,6.24,11.58,10.3271a14.3863,14.3863,0,0,1,3.142,8.9649,16.6558,16.6558,0,0,1-5.3833,12.3486,18.0645,18.0645,0,0,1-13.0737,5.23,19.3126,19.3126,0,0,1-10.81-3.164Q6.7787,65.8749,2.7365,58.4481Z" transform="translate(-2.7365 -3.285)" fill="#1c2849"/><path d="M53.2736,6.4608H90.6271v6.416h-30.85V33.2675H78.5861v6.3281H59.7775V65.1718h30.586v6.46h-37.09Z" transform="translate(-2.7365 -3.285)" fill="#1f345d"/><path d="M103.4152,6.285h12.9639q11.2061,0,15.0732.9668a16.7911,16.7911,0,0,1,9.1407,5.669,16.36,16.36,0,0,1,3.5156,10.7666,16.4061,16.4061,0,0,1-3.45,10.7007,16.89,16.89,0,0,1-9.5142,5.6909q-4.4392,1.0547-16.5674,1.0547h-4.6582V71.4559h-6.5039Zm6.5039,6.3282V34.7616l11.0743.1318q6.635,0,9.7338-1.2085a9.99,9.99,0,0,0,4.878-3.955,11.1845,11.1845,0,0,0,0-12.107,9.7765,9.7765,0,0,0-4.68-3.8672q-2.9-1.1425-9.4922-1.1425Z" transform="translate(-2.7365 -3.285)" fill="#154075"/><path d="M150.6125,12.789V6.4608H186.384V12.789h-14.59V71.6317h-6.6357V12.789Z" transform="translate(-2.7365 -3.285)" fill="#005087"/><path d="M261.404,12.789V6.4608h35.7715V12.789h-14.59V71.6317h-6.6367V12.789Z" transform="translate(-2.7365 -3.285)" fill="#3b7ca7"/><path d="M306.7985,6.4608h12.9649q10.8545,0,14.7207.8789a16.7853,16.7853,0,0,1,9.4492,5.691A16.2127,16.2127,0,0,1,347.58,23.7753a17.26,17.26,0,0,1-2.5039,9.36,15.8212,15.8212,0,0,1-7.1856,6.0865,20.4972,20.4972,0,0,1-8.1074,2.0874l18.6758,30.3222h-7.9981L321.7849,41.31h-8.4825V71.6317h-6.5039Zm6.5039,6.3721V34.9813l11.2071.0879q6.5038,0,9.6465-1.23a9.8923,9.8923,0,0,0,4.8769-3.9551,11.1359,11.1359,0,0,0,1.7363-6.1084,10.5038,10.5038,0,0,0-1.7793-5.9326,10.022,10.022,0,0,0-4.6367-3.8453q-2.8565-1.1637-9.58-1.1645Z" transform="translate(-2.7365 -3.285)" fill="#5494be"/><path d="M360.5,6.4608h6.5039V71.6317H360.5Z" transform="translate(-2.7365 -3.285)" fill="#73abcf"/><path d="M381.8142,6.285H394.777q11.2061,0,15.0743.9668a16.7891,16.7891,0,0,1,9.1406,5.669,16.36,16.36,0,0,1,3.5156,10.7666,16.4113,16.4113,0,0,1-3.4492,10.7007,16.8956,16.8956,0,0,1-9.5156,5.6909q-4.4385,1.0547-16.5664,1.0547h-4.6582V71.4559h-6.5039Zm6.5039,6.3282V34.7616l11.0742.1318q6.6357,0,9.7344-1.2085a9.9877,9.9877,0,0,0,4.8769-3.955,11.1872,11.1872,0,0,0,0-12.107,9.77,9.77,0,0,0-4.68-3.8672q-2.9-1.1425-9.4922-1.1425Z" transform="translate(-2.7365 -3.285)" fill="#8ec1e2"/><path d="M202.3464,56.12s6.5433-11.1412,11.6718-7.6043,5.6627,7.7811,9.463,6.8969,5.5687-5.2238,10.52-1.9453c4.8734,3.2268,8.3528,3.7138,8.3528,3.7138" transform="translate(-2.7365 -3.285)" fill="none" stroke="#165187" stroke-miterlimit="10" stroke-width="2"/><path d="M202.6836,24.7119c-5.0616,3.18-12.5483,9.39-11.5756,11.9842,1.2316,3.2844,15.9484.5632,20.0973-.25" transform="translate(-2.7365 -3.285)" fill="none" stroke="#165187" stroke-miterlimit="10"/><path d="M235.1356,25.6974c3.6113-2.283,14.7925-9.3372,13.6488-12.1781-.8247-2.0489-7.5455-1.2789-12.0315-.7643" transform="translate(-2.7365 -3.285)" fill="none" stroke="#165187" stroke-miterlimit="10"/><path d="M218.49,52.0842s9.1439-7.4465,13.2408-8.1335c5.4-.9055,10.6233,6.6983,10.6233,6.6983" transform="translate(-2.7365 -3.285)" fill="none" stroke="#165187" stroke-miterlimit="10" stroke-width="2"/><path d="M221.3552,6.285h1.99a19.0087,19.0087,0,0,1,19.0087,19.0088V52.1782a19.0087,19.0087,0,0,1-19.0087,19.0087h-1.99a19.0087,19.0087,0,0,1-19.0088-19.0087V25.2938A19.0088,19.0088,0,0,1,221.3552,6.285Z" transform="translate(-2.7365 -3.285)" fill="none" stroke="#165187" stroke-miterlimit="10" stroke-width="6"/><path d="M232.23,26.3574a3.69,3.69,0,0,0-2.7276.1964c-1.5883.5636-3.2082,1.2621-4.792,1.99L216.4144,23l-1.2386,1.0762,5.3813,6.1927-5.711,2.9338c-.7615-.6539-2.0048-1.5535-2.4475-.4818a1.228,1.228,0,0,0-.054.7717l1.5919,3.8335a1.2286,1.2286,0,0,0,.5848.5064c1.0719.4428,1.3118-1.0729,1.386-2.074l6.1091-1.9753.5893,8.1829,1.6367-.1178,1.927-9.79c1.6336-.6082,3.2717-1.2628,4.7919-1.99a3.6907,3.6907,0,0,0,2.0643-1.7937,1.3748,1.3748,0,0,0-.796-1.9167Z" transform="translate(-2.7365 -3.285)" fill="#165187"/></g></svg>